<svg width="1200" height="630" viewBox="0 0 1200 630" fill="none" xmlns="http://www.w3.org/2000/svg">
<rect width="1200" height="630" fill="#E8E8E8"/>
<path d="M48.3116 48.9121V155.914H92.3353C110.679 155.914 124.283 145.367 124.283 127.329C124.283 112.196 114.041 105.012 105.94 102.872V101.343C113.889 98.7444 124.13 92.0186 124.13 76.8854C124.13 59.6123 110.679 48.9121 92.641 48.9121H48.3116ZM60.6933 60.0708H91.4182C103.953 60.0708 111.901 67.4081 111.901 77.9555C111.901 88.9614 104.411 96.4515 91.571 96.4515H60.6933V60.0708ZM60.6933 107.763H91.1124C104.717 107.763 112.207 114.948 112.207 126.106C112.207 136.959 104.717 144.755 91.7239 144.755H60.6933V107.763ZM142.953 48.9121V155.914H210.823V144.755H155.335V107.763H205.779V96.6044H155.335V60.0708H210.059V48.9121H142.953ZM228.34 48.9121V155.914H240.722V62.2109H242.25L284.134 155.914H305.382V48.9121H293V142.615H291.471L249.435 48.9121H228.34ZM388.135 48.9121H375.6V123.813C375.6 137.418 370.403 146.895 356.034 146.895C341.666 146.895 334.634 137.571 334.634 123.813V115.559H322.099V123.813C322.099 145.978 335.093 158.054 356.034 158.054C376.976 158.054 388.135 145.978 388.135 123.813V48.9121ZM434.045 48.9121L399.346 155.914H412.339L421.052 128.705H465.993L474.706 155.914H487.699L453 48.9121H434.045ZM424.415 117.546L442.759 60.3766H444.287L462.63 117.546H424.415ZM501.219 48.9121V155.914H513.448V62.058H514.977L547.536 155.914H565.267L597.827 62.058H599.355V155.914H611.584V48.9121H589.878L557.166 143.227H555.637L522.925 48.9121H501.219ZM634.225 48.9121V155.914H646.607V48.9121H634.225ZM669.156 48.9121V155.914H681.538V62.2109H683.066L724.95 155.914H746.198V48.9121H733.816V142.615H732.287L690.251 48.9121H669.156ZM48.3116 201.912V308.914H80.1065C108.386 308.914 124.436 294.851 124.436 265.196V245.63C124.436 215.975 108.386 201.912 80.1065 201.912H48.3116ZM60.6933 213.071H80.2594C100.895 213.071 111.901 223.16 111.901 245.171V265.655C111.901 287.667 101.354 297.755 80.2594 297.755H60.6933V213.071ZM140.337 243.184V267.642C140.337 295.921 156.693 311.054 182.221 311.054C207.748 311.054 224.104 295.921 224.104 267.642V243.184C224.104 214.905 207.748 199.772 182.221 199.772C156.693 199.772 140.337 214.905 140.337 243.184ZM152.719 242.573C152.719 222.854 163.572 210.778 182.221 210.778C200.717 210.778 211.57 222.854 211.57 242.573V268.253C211.57 287.972 200.717 299.895 182.221 299.895C163.572 299.895 152.719 287.972 152.719 268.253V242.573ZM278.422 199.772C256.869 199.772 242.041 210.931 242.041 228.815C242.041 246.853 254.423 254.19 273.225 258.623L281.326 260.61C295.695 263.973 305.173 268.253 305.173 280.024C305.173 291.794 295.542 300.048 278.728 300.048C262.066 300.048 250.602 291.641 250.602 272.992V271.922H238.22V272.992C238.22 298.52 255.493 311.054 278.728 311.054C302.115 311.054 317.401 298.52 317.401 279.871C317.401 261.069 303.491 254.037 284.995 249.757L276.741 247.77C262.525 244.407 254.423 240.433 254.423 228.663C254.423 217.198 263.9 210.778 278.422 210.778C293.249 210.778 304.103 217.198 304.103 232.79V237.834H316.484V232.79C316.484 210.931 299.975 199.772 278.422 199.772ZM417.847 199.772C396.294 199.772 381.466 210.931 381.466 228.815C381.466 246.853 393.848 254.19 412.65 258.623L420.751 260.61C435.12 263.973 444.598 268.253 444.598 280.024C444.598 291.794 434.967 300.048 418.153 300.048C401.491 300.048 390.027 291.641 390.027 272.992V271.922H377.645V272.992C377.645 298.52 394.918 311.054 418.153 311.054C441.54 311.054 456.826 298.52 456.826 279.871C456.826 261.069 442.916 254.037 424.42 249.757L416.166 247.77C401.95 244.407 393.848 240.433 393.848 228.663C393.848 217.198 403.325 210.778 417.847 210.778C432.675 210.778 443.528 217.198 443.528 232.79V237.834H455.909V232.79C455.909 210.931 439.4 199.772 417.847 199.772ZM499.13 201.912L464.431 308.914H477.424L486.137 281.705H531.078L539.791 308.914H552.784L518.085 201.912H499.13ZM489.5 270.546L507.843 213.377H509.372L527.715 270.546H489.5ZM566.304 201.912V308.914H578.686V215.211H580.214L622.098 308.914H643.345V201.912H630.964V295.615H629.435L587.399 201.912H566.304ZM657.159 201.912V213.071H692.928V308.914H705.31V213.071H740.926V201.912H657.159ZM749.239 243.184V267.642C749.239 295.921 765.595 311.054 791.123 311.054C816.651 311.054 833.007 295.921 833.007 267.642V243.184C833.007 214.905 816.651 199.772 791.123 199.772C765.595 199.772 749.239 214.905 749.239 243.184ZM761.621 242.573C761.621 222.854 772.474 210.778 791.123 210.778C809.619 210.778 820.472 222.854 820.472 242.573V268.253C820.472 287.972 809.619 299.895 791.123 299.895C772.474 299.895 761.621 287.972 761.621 268.253V242.573ZM887.324 199.772C865.771 199.772 850.944 210.931 850.944 228.815C850.944 246.853 863.325 254.19 882.127 258.623L890.229 260.61C904.598 263.973 914.075 268.253 914.075 280.024C914.075 291.794 904.445 300.048 887.63 300.048C870.968 300.048 859.504 291.641 859.504 272.992V271.922H847.122V272.992C847.122 298.52 864.395 311.054 887.63 311.054C911.018 311.054 926.304 298.52 926.304 279.871C926.304 261.069 912.393 254.037 893.897 249.757L885.643 247.77C871.427 244.407 863.325 240.433 863.325 228.663C863.325 217.198 872.803 210.778 887.324 210.778C902.152 210.778 913.005 217.198 913.005 232.79V237.834H925.386V232.79C925.386 210.931 908.878 199.772 887.324 199.772Z" fill="#2C2C2C"/>
</svg>
